<svg xmlns="http://www.w3.org/2000/svg" xmlns:xlink="http://www.w3.org/1999/xlink" width="2000" zoomAndPan="magnify" viewBox="0 0 1500 1499.999933" height="2000" preserveAspectRatio="xMidYMid meet" version="1.0"><defs><g/><clipPath id="51a6a041fd"><rect x="0" width="888" y="0" height="369"/></clipPath><clipPath id="f0b425c747"><path d="M 0.675781 0.519531 L 330.675781 0.519531 L 330.675781 324.4375 L 0.675781 324.4375 Z M 0.675781 0.519531 " clip-rule="nonzero"/></clipPath><clipPath id="356fbabb6e"><path d="M 68.054688 65.109375 L 263.855469 65.109375 L 263.855469 260.910156 L 68.054688 260.910156 Z M 68.054688 65.109375 " clip-rule="nonzero"/></clipPath><clipPath id="0a6a792506"><path d="M 165.957031 65.109375 C 111.886719 65.109375 68.054688 108.941406 68.054688 163.011719 C 68.054688 217.078125 111.886719 260.910156 165.957031 260.910156 C 220.023438 260.910156 263.855469 217.078125 263.855469 163.011719 C 263.855469 108.941406 220.023438 65.109375 165.957031 65.109375 Z M 165.957031 65.109375 " clip-rule="nonzero"/></clipPath><clipPath id="758ac37d64"><path d="M 0.0546875 0.109375 L 195.855469 0.109375 L 195.855469 195.910156 L 0.0546875 195.910156 Z M 0.0546875 0.109375 " clip-rule="nonzero"/></clipPath><clipPath id="466fbb6a18"><path d="M 97.957031 0.109375 C 43.886719 0.109375 0.0546875 43.941406 0.0546875 98.011719 C 0.0546875 152.078125 43.886719 195.910156 97.957031 195.910156 C 152.023438 195.910156 195.855469 152.078125 195.855469 98.011719 C 195.855469 43.941406 152.023438 0.109375 97.957031 0.109375 Z M 97.957031 0.109375 " clip-rule="nonzero"/></clipPath><clipPath id="a36ce219a8"><rect x="0" width="196" y="0" height="196"/></clipPath><clipPath id="0890e12c4b"><path d="M 68.054688 65.109375 L 263.054688 65.109375 L 263.054688 260.109375 L 68.054688 260.109375 Z M 68.054688 65.109375 " clip-rule="nonzero"/></clipPath><clipPath id="cce37f5964"><path d="M 165.953125 65.109375 C 111.886719 65.109375 68.054688 108.941406 68.054688 163.007812 C 68.054688 217.078125 111.886719 260.90625 165.953125 260.90625 C 220.023438 260.90625 263.851562 217.078125 263.851562 163.007812 C 263.851562 108.941406 220.023438 65.109375 165.953125 65.109375 Z M 165.953125 65.109375 " clip-rule="nonzero"/></clipPath><clipPath id="5ad04a61f8"><rect x="0" width="332" y="0" height="326"/></clipPath><clipPath id="809bfc0fe3"><rect x="0" width="729" y="0" height="369"/></clipPath><clipPath id="f0184c7a62"><path d="M 253.753906 898.289062 L 603 898.289062 L 603 933.539062 L 253.753906 933.539062 Z M 253.753906 898.289062 " clip-rule="nonzero"/></clipPath><clipPath id="5bf07ba823"><path d="M 585 898.289062 L 624 898.289062 L 624 933.539062 L 585 933.539062 Z M 585 898.289062 " clip-rule="nonzero"/></clipPath><clipPath id="cd105f6608"><path d="M 607 898.289062 L 643 898.289062 L 643 933.539062 L 607 933.539062 Z M 607 898.289062 " clip-rule="nonzero"/></clipPath><clipPath id="b9ed4e0af3"><path d="M 627 898.289062 L 660 898.289062 L 660 933.539062 L 627 933.539062 Z M 627 898.289062 " clip-rule="nonzero"/></clipPath><clipPath id="f35af1a88f"><path d="M 645 898.289062 L 672 898.289062 L 672 933.539062 L 645 933.539062 Z M 645 898.289062 " clip-rule="nonzero"/></clipPath><clipPath id="8e37a88a57"><path d="M 659 898.289062 L 682.753906 898.289062 L 682.753906 933.539062 L 659 933.539062 Z M 659 898.289062 " clip-rule="nonzero"/></clipPath><clipPath id="68e72a546d"><rect x="0" width="236" y="0" height="106"/></clipPath></defs><rect x="-150" width="1800" fill="#ffffff" y="-149.999993" height="1799.99992" fill-opacity="1"/><rect x="-150" width="1800" fill="#000000" y="-149.999993" height="1799.99992" fill-opacity="1"/><g transform="matrix(1, 0, 0, 1, 245, 567)"><g clip-path="url(#51a6a041fd)"><g fill="#ffffff" fill-opacity="1"><g transform="translate(38.727821, 260.38345)"><g><path d="M 93.949219 -136.796875 L 69.328125 -30.183594 L 34.386719 -38.25 L 69.632812 -31.640625 C 70.316406 -35.277344 70.253906 -38.96875 69.453125 -42.714844 C 68.554688 -46.898438 66.835938 -50.683594 64.296875 -54.070312 C 61.398438 -57.9375 57.738281 -60.929688 53.3125 -63.054688 C 49.253906 -65 45.046875 -65.976562 40.691406 -65.976562 L 135.484375 -65.976562 L 112.777344 35.863281 L 33.773438 35.863281 C 23.304688 35.863281 13.664062 33.859375 4.84375 29.851562 C -4.59375 25.5625 -12.574219 19.242188 -19.097656 10.898438 C -25.601562 2.582031 -29.8125 -6.691406 -31.734375 -16.925781 C -33.507812 -26.351562 -33.222656 -36.148438 -30.875 -46.316406 L 0.164062 -180.730469 L 104.09375 -180.730469 Z M 24.0625 -152.933594 L 59.003906 -144.867188 L 59.003906 -109.003906 L 28.6875 -109.003906 L 28.6875 -144.867188 L 63.632812 -136.796875 L 39.015625 -30.1875 C 38.914062 -29.746094 38.859375 -29.433594 38.851562 -29.246094 C 38.859375 -29.480469 38.828125 -29.789062 38.753906 -30.175781 C 38.527344 -31.386719 38.078125 -32.421875 37.410156 -33.28125 C 36.71875 -34.164062 35.753906 -34.886719 34.523438 -35.445312 C 34.054688 -35.660156 33.636719 -35.804688 33.269531 -35.875 L 33.253906 -35.882812 C 33.390625 -35.871094 33.566406 -35.863281 33.773438 -35.863281 L 84.03125 -35.863281 L 84.03125 0 L 49.027344 -7.804688 L 55.742188 -37.917969 L 90.746094 -30.113281 L 90.746094 5.75 L 40.691406 5.75 C 34.167969 5.75 28.027344 4.371094 22.273438 1.609375 C 16.152344 -1.328125 11.035156 -5.542969 6.914062 -11.035156 C 3.15625 -16.050781 0.621094 -21.601562 -0.683594 -27.683594 C -1.890625 -33.328125 -1.953125 -39.054688 -0.863281 -44.859375 L -0.726562 -45.59375 Z M 24.0625 -152.933594 "/></g></g></g><g fill="#ffffff" fill-opacity="1"><g transform="translate(158.870549, 260.38345)"><g><path d="M 67.347656 -180.730469 L 94.609375 -180.730469 C 105.078125 -180.730469 114.722656 -178.726562 123.539062 -174.714844 C 132.976562 -170.425781 140.957031 -164.109375 147.484375 -155.765625 C 153.984375 -147.445312 158.199219 -138.171875 160.121094 -127.941406 C 161.894531 -118.511719 161.605469 -108.714844 159.261719 -98.550781 L 128.222656 35.863281 L 24.082031 35.863281 L 46.644531 -61.789062 L 81.589844 -53.714844 L 90.503906 -18.976562 L 44.519531 -7.175781 L 35.605469 -41.914062 L 70.570312 -33.9375 L 54.644531 35.863281 L -49.566406 35.863281 L -14.800781 -114.683594 C -12.644531 -124.023438 -8.992188 -132.699219 -3.84375 -140.707031 C 1.113281 -148.417969 7.355469 -155.34375 14.886719 -161.476562 C 22.496094 -167.679688 30.621094 -172.402344 39.253906 -175.644531 C 48.285156 -179.035156 57.648438 -180.730469 67.347656 -180.730469 Z M 67.347656 -109.003906 C 66.328125 -109.003906 65.367188 -108.832031 64.460938 -108.492188 C 63.160156 -108.003906 61.734375 -107.128906 60.191406 -105.871094 C 57.386719 -103.585938 55.6875 -101.144531 55.085938 -98.546875 L 30.46875 8.070312 L -4.476562 0 L -4.476562 -35.863281 L 26.042969 -35.863281 L 26.042969 0 L -8.921875 -7.976562 L 5.507812 -71.214844 L 129.8125 -103.117188 L 104.121094 8.074219 L 69.175781 0 L 69.175781 -35.863281 L 99.695312 -35.863281 L 99.695312 0 L 64.753906 -8.070312 L 89.371094 -114.679688 C 89.472656 -115.117188 89.527344 -115.433594 89.535156 -115.621094 C 89.523438 -115.386719 89.558594 -115.074219 89.628906 -114.691406 C 89.855469 -113.476562 90.304688 -112.441406 90.976562 -111.585938 C 91.667969 -110.699219 92.628906 -109.980469 93.859375 -109.417969 C 94.328125 -109.207031 94.746094 -109.0625 95.117188 -108.988281 L 95.132812 -108.984375 C 94.992188 -108.996094 94.820312 -109.003906 94.609375 -109.003906 Z M 87.691406 -78.6875 L 60.429688 -78.6875 C 63.699219 -78.6875 66.859375 -79.261719 69.902344 -80.40625 C 72.363281 -81.335938 74.566406 -82.570312 76.507812 -84.109375 C 78.679688 -85.832031 80.546875 -87.925781 82.113281 -90.386719 C 84 -93.347656 85.265625 -96.554688 85.910156 -100.003906 L 85.777344 -99.28125 L 77.878906 -64.996094 L 42.929688 -73.042969 L 34.125 -107.808594 L 79.902344 -119.40625 L 88.710938 -84.640625 L 53.769531 -92.726562 L 58.855469 -114.703125 L 93.796875 -106.613281 L 58.546875 -113.222656 C 57.898438 -109.757812 57.933594 -106.21875 58.65625 -102.609375 C 59.515625 -98.308594 61.242188 -94.402344 63.835938 -90.894531 C 66.855469 -86.808594 70.683594 -83.679688 75.328125 -81.5 C 79.324219 -79.625 83.445312 -78.6875 87.691406 -78.6875 Z M 87.691406 -150.414062 C 94.109375 -150.414062 100.148438 -149.085938 105.804688 -146.429688 C 112.109375 -143.46875 117.347656 -139.167969 121.519531 -133.527344 C 125.265625 -128.457031 127.753906 -122.839844 128.988281 -116.675781 C 130.082031 -111.199219 130.101562 -105.644531 129.046875 -100.003906 L 128.90625 -99.261719 L 118.71875 -55.246094 L -5.199219 -23.855469 L 15.714844 -114.664062 L 50.664062 -106.613281 L 15.414062 -113.222656 C 16.46875 -118.84375 18.53125 -124.070312 21.601562 -128.894531 C 24.355469 -133.222656 27.800781 -137.027344 31.9375 -140.308594 C 35.847656 -143.410156 40.066406 -145.8125 44.597656 -147.523438 C 49.707031 -149.449219 54.984375 -150.414062 60.429688 -150.414062 Z M 87.691406 -150.414062 "/></g></g></g><g fill="#ffffff" fill-opacity="1"><g transform="translate(297.527874, 260.38345)"><g><path d="M 28.28125 -180.730469 L 96.238281 -180.730469 C 106.679688 -180.730469 116.304688 -178.710938 125.117188 -174.671875 C 134.476562 -170.378906 142.40625 -164.078125 148.90625 -155.765625 C 155.410156 -147.445312 159.621094 -138.171875 161.546875 -127.941406 C 163.316406 -118.511719 163.03125 -108.714844 160.683594 -98.550781 L 157.394531 -84.566406 C 154.519531 -71.617188 148.417969 -59.769531 139.089844 -49.023438 C 130.0625 -38.628906 119.238281 -30.789062 106.617188 -25.511719 L 92.777344 -58.597656 L 128.609375 -60.089844 L 132.609375 35.863281 L 29.300781 35.863281 L 26.214844 -49.15625 L 62.054688 -50.457031 L 70.691406 -15.652344 L 43.632812 -8.9375 L 34.996094 -43.746094 L 69.960938 -35.777344 L 53.636719 35.863281 L -50.148438 35.863281 L -0.261719 -180.730469 Z M 28.28125 -109.003906 L 28.28125 -144.867188 L 63.230469 -136.816406 L 29.863281 8.050781 L -5.085938 0 L -5.085938 -35.863281 L 25.027344 -35.863281 L 25.027344 0 L -9.941406 -7.96875 L 4.933594 -73.234375 L 96.292969 -95.90625 L 99.726562 -1.300781 L 63.886719 0 L 63.886719 -35.863281 L 95.21875 -35.863281 L 95.21875 0 L 59.386719 1.492188 L 55.90625 -82.050781 L 78.941406 -91.683594 C 81.242188 -92.644531 83.234375 -94.097656 84.925781 -96.046875 C 86.3125 -97.644531 87.195312 -99.292969 87.574219 -100.992188 L 90.796875 -114.679688 C 90.898438 -115.117188 90.949219 -115.433594 90.957031 -115.621094 C 90.949219 -115.386719 90.980469 -115.074219 91.054688 -114.691406 C 91.28125 -113.476562 91.730469 -112.441406 92.398438 -111.585938 C 93.066406 -110.730469 94.011719 -110.027344 95.234375 -109.464844 C 95.726562 -109.238281 96.175781 -109.085938 96.582031 -109.003906 C 96.636719 -108.992188 96.667969 -108.988281 96.671875 -108.988281 C 96.5625 -108.996094 96.417969 -109.003906 96.238281 -109.003906 Z M 86.410156 -106.445312 L 77.257812 -66.972656 L 42.320312 -75.078125 L 33.8125 -109.917969 L 77.960938 -120.699219 L 86.472656 -85.863281 L 68.824219 -117.082031 C 66.515625 -115.777344 64.425781 -113.988281 62.550781 -111.710938 C 59.980469 -108.589844 58.222656 -105.046875 57.28125 -101.085938 L 60.515625 -114.828125 L 95.425781 -106.613281 L 60.175781 -113.222656 C 59.523438 -109.757812 59.5625 -106.21875 60.28125 -102.609375 C 61.144531 -98.308594 62.871094 -94.402344 65.464844 -90.894531 C 68.484375 -86.808594 72.3125 -83.679688 76.957031 -81.5 C 80.953125 -79.625 85.074219 -78.6875 89.320312 -78.6875 L 51.476562 -78.6875 L 51.476562 -114.550781 Z M 22.980469 -150.414062 L 89.320312 -150.414062 C 95.738281 -150.414062 101.773438 -149.085938 107.433594 -146.429688 C 113.738281 -143.46875 118.976562 -139.167969 123.144531 -133.527344 C 126.894531 -128.457031 129.382812 -122.839844 130.617188 -116.675781 C 131.710938 -111.199219 131.730469 -105.644531 130.671875 -100.003906 L 130.523438 -99.199219 L 127.054688 -84.472656 C 125.433594 -77.660156 122.390625 -71.542969 117.917969 -66.113281 C 114.144531 -61.53125 109.546875 -57.707031 104.117188 -54.640625 L 99.800781 -52.199219 L -5.785156 -26.410156 L 16.539062 -122.652344 Z M 22.980469 -150.414062 "/></g></g></g><g fill="#ffffff" fill-opacity="1"><g transform="translate(435.167868, 260.38345)"><g><path d="M 67.347656 -180.730469 L 94.609375 -180.730469 C 105.078125 -180.730469 114.722656 -178.726562 123.539062 -174.714844 C 132.976562 -170.425781 140.957031 -164.109375 147.484375 -155.765625 C 153.984375 -147.445312 158.199219 -138.171875 160.121094 -127.941406 C 161.894531 -118.511719 161.605469 -108.714844 159.261719 -98.550781 L 128.222656 35.863281 L 24.082031 35.863281 L 46.644531 -61.789062 L 81.589844 -53.714844 L 90.503906 -18.976562 L 44.519531 -7.175781 L 35.605469 -41.914062 L 70.570312 -33.9375 L 54.644531 35.863281 L -49.566406 35.863281 L -14.800781 -114.683594 C -12.644531 -124.023438 -8.992188 -132.699219 -3.84375 -140.707031 C 1.113281 -148.417969 7.355469 -155.34375 14.886719 -161.476562 C 22.496094 -167.679688 30.621094 -172.402344 39.253906 -175.644531 C 48.285156 -179.035156 57.648438 -180.730469 67.347656 -180.730469 Z M 67.347656 -109.003906 C 66.328125 -109.003906 65.367188 -108.832031 64.460938 -108.492188 C 63.160156 -108.003906 61.734375 -107.128906 60.191406 -105.871094 C 57.386719 -103.585938 55.6875 -101.144531 55.085938 -98.546875 L 30.46875 8.070312 L -4.476562 0 L -4.476562 -35.863281 L 26.042969 -35.863281 L 26.042969 0 L -8.921875 -7.976562 L 5.507812 -71.214844 L 129.8125 -103.117188 L 104.121094 8.074219 L 69.175781 0 L 69.175781 -35.863281 L 99.695312 -35.863281 L 99.695312 0 L 64.753906 -8.070312 L 89.371094 -114.679688 C 89.472656 -115.117188 89.527344 -115.433594 89.535156 -115.621094 C 89.523438 -115.386719 89.558594 -115.074219 89.628906 -114.691406 C 89.855469 -113.476562 90.304688 -112.441406 90.976562 -111.585938 C 91.667969 -110.699219 92.628906 -109.980469 93.859375 -109.417969 C 94.328125 -109.207031 94.746094 -109.0625 95.117188 -108.988281 L 95.132812 -108.984375 C 94.992188 -108.996094 94.820312 -109.003906 94.609375 -109.003906 Z M 87.691406 -78.6875 L 60.429688 -78.6875 C 63.699219 -78.6875 66.859375 -79.261719 69.902344 -80.40625 C 72.363281 -81.335938 74.566406 -82.570312 76.507812 -84.109375 C 78.679688 -85.832031 80.546875 -87.925781 82.113281 -90.386719 C 84 -93.347656 85.265625 -96.554688 85.910156 -100.003906 L 85.777344 -99.28125 L 77.878906 -64.996094 L 42.929688 -73.042969 L 34.125 -107.808594 L 79.902344 -119.40625 L 88.710938 -84.640625 L 53.769531 -92.726562 L 58.855469 -114.703125 L 93.796875 -106.613281 L 58.546875 -113.222656 C 57.898438 -109.757812 57.933594 -106.21875 58.65625 -102.609375 C 59.515625 -98.308594 61.242188 -94.402344 63.835938 -90.894531 C 66.855469 -86.808594 70.683594 -83.679688 75.328125 -81.5 C 79.324219 -79.625 83.445312 -78.6875 87.691406 -78.6875 Z M 87.691406 -150.414062 C 94.109375 -150.414062 100.148438 -149.085938 105.804688 -146.429688 C 112.109375 -143.46875 117.347656 -139.167969 121.519531 -133.527344 C 125.265625 -128.457031 127.753906 -122.839844 128.988281 -116.675781 C 130.082031 -111.199219 130.101562 -105.644531 129.046875 -100.003906 L 128.90625 -99.261719 L 118.71875 -55.246094 L -5.199219 -23.855469 L 15.714844 -114.664062 L 50.664062 -106.613281 L 15.414062 -113.222656 C 16.46875 -118.84375 18.53125 -124.070312 21.601562 -128.894531 C 24.355469 -133.222656 27.800781 -137.027344 31.9375 -140.308594 C 35.847656 -143.410156 40.066406 -145.8125 44.597656 -147.523438 C 49.707031 -149.449219 54.984375 -150.414062 60.429688 -150.414062 Z M 87.691406 -150.414062 "/></g></g></g><g fill="#ffffff" fill-opacity="1"><g transform="translate(573.825194, 260.38345)"><g><path d="M 28.890625 -180.730469 L 95.21875 -180.730469 C 105.675781 -180.730469 115.324219 -178.667969 124.164062 -174.542969 C 133.445312 -170.214844 141.320312 -163.878906 147.78125 -155.539062 C 154.226562 -147.222656 158.40625 -137.988281 160.320312 -127.835938 C 162.105469 -118.382812 161.8125 -108.589844 159.441406 -98.449219 L 128.425781 35.863281 L 24.496094 35.863281 L 59.257812 -114.683594 L 94.203125 -106.613281 L 58.953125 -113.222656 C 58.351562 -110.007812 58.351562 -106.71875 58.949219 -103.363281 C 59.65625 -99.402344 61.121094 -95.753906 63.347656 -92.417969 C 66.324219 -87.949219 70.246094 -84.5 75.113281 -82.066406 C 79.347656 -79.949219 83.742188 -78.890625 88.304688 -78.890625 L 52.289062 -78.890625 L 52.289062 -114.753906 L 87.238281 -106.699219 L 54.378906 35.863281 L -49.539062 35.863281 L 0.351562 -180.730469 Z M 28.890625 -109.003906 L 28.890625 -144.867188 L 63.839844 -136.816406 L 30.472656 8.050781 L -4.476562 0 L -4.476562 -35.863281 L 25.839844 -35.863281 L 25.839844 0 L -9.105469 -8.054688 L 23.753906 -150.617188 L 88.304688 -150.617188 C 95.03125 -150.617188 101.328125 -149.152344 107.191406 -146.21875 C 113.683594 -142.972656 118.960938 -138.300781 123.027344 -132.203125 C 126.335938 -127.242188 128.511719 -121.828125 129.558594 -115.972656 C 130.496094 -110.714844 130.460938 -105.390625 129.453125 -100.003906 L 129.316406 -99.273438 L 104.527344 8.070312 L 69.585938 0 L 69.585938 -35.863281 L 99.898438 -35.863281 L 99.898438 0 L 64.957031 -8.070312 L 89.597656 -114.777344 C 89.6875 -115.15625 89.734375 -115.414062 89.738281 -115.550781 C 89.726562 -115.28125 89.761719 -114.945312 89.835938 -114.539062 C 90.058594 -113.371094 90.472656 -112.398438 91.082031 -111.609375 C 91.714844 -110.796875 92.632812 -110.105469 93.847656 -109.539062 C 94.378906 -109.292969 94.878906 -109.121094 95.335938 -109.027344 C 95.429688 -109.007812 95.496094 -108.996094 95.535156 -108.992188 C 95.464844 -109 95.359375 -109.003906 95.21875 -109.003906 Z M 28.890625 -109.003906 "/></g></g></g><g fill="#ffffff" fill-opacity="1"><g transform="translate(713.092876, 260.38345)"><g><path d="M 67.347656 -180.730469 L 94.609375 -180.730469 C 105.078125 -180.730469 114.722656 -178.726562 123.539062 -174.714844 C 132.976562 -170.425781 140.957031 -164.109375 147.484375 -155.765625 C 153.984375 -147.445312 158.199219 -138.171875 160.121094 -127.941406 C 161.894531 -118.511719 161.605469 -108.714844 159.261719 -98.550781 L 128.222656 35.863281 L 24.082031 35.863281 L 46.644531 -61.789062 L 81.589844 -53.714844 L 90.503906 -18.976562 L 44.519531 -7.175781 L 35.605469 -41.914062 L 70.570312 -33.9375 L 54.644531 35.863281 L -49.566406 35.863281 L -14.800781 -114.683594 C -12.644531 -124.023438 -8.992188 -132.699219 -3.84375 -140.707031 C 1.113281 -148.417969 7.355469 -155.34375 14.886719 -161.476562 C 22.496094 -167.679688 30.621094 -172.402344 39.253906 -175.644531 C 48.285156 -179.035156 57.648438 -180.730469 67.347656 -180.730469 Z M 67.347656 -109.003906 C 66.328125 -109.003906 65.367188 -108.832031 64.460938 -108.492188 C 63.160156 -108.003906 61.734375 -107.128906 60.191406 -105.871094 C 57.386719 -103.585938 55.6875 -101.144531 55.085938 -98.546875 L 30.46875 8.070312 L -4.476562 0 L -4.476562 -35.863281 L 26.042969 -35.863281 L 26.042969 0 L -8.921875 -7.976562 L 5.507812 -71.214844 L 129.8125 -103.117188 L 104.121094 8.074219 L 69.175781 0 L 69.175781 -35.863281 L 99.695312 -35.863281 L 99.695312 0 L 64.753906 -8.070312 L 89.371094 -114.679688 C 89.472656 -115.117188 89.527344 -115.433594 89.535156 -115.621094 C 89.523438 -115.386719 89.558594 -115.074219 89.628906 -114.691406 C 89.855469 -113.476562 90.304688 -112.441406 90.976562 -111.585938 C 91.667969 -110.699219 92.628906 -109.980469 93.859375 -109.417969 C 94.328125 -109.207031 94.746094 -109.0625 95.117188 -108.988281 L 95.132812 -108.984375 C 94.992188 -108.996094 94.820312 -109.003906 94.609375 -109.003906 Z M 87.691406 -78.6875 L 60.429688 -78.6875 C 63.699219 -78.6875 66.859375 -79.261719 69.902344 -80.40625 C 72.363281 -81.335938 74.566406 -82.570312 76.507812 -84.109375 C 78.679688 -85.832031 80.546875 -87.925781 82.113281 -90.386719 C 84 -93.347656 85.265625 -96.554688 85.910156 -100.003906 L 85.777344 -99.28125 L 77.878906 -64.996094 L 42.929688 -73.042969 L 34.125 -107.808594 L 79.902344 -119.40625 L 88.710938 -84.640625 L 53.769531 -92.726562 L 58.855469 -114.703125 L 93.796875 -106.613281 L 58.546875 -113.222656 C 57.898438 -109.757812 57.933594 -106.21875 58.65625 -102.609375 C 59.515625 -98.308594 61.242188 -94.402344 63.835938 -90.894531 C 66.855469 -86.808594 70.683594 -83.679688 75.328125 -81.5 C 79.324219 -79.625 83.445312 -78.6875 87.691406 -78.6875 Z M 87.691406 -150.414062 C 94.109375 -150.414062 100.148438 -149.085938 105.804688 -146.429688 C 112.109375 -143.46875 117.347656 -139.167969 121.519531 -133.527344 C 125.265625 -128.457031 127.753906 -122.839844 128.988281 -116.675781 C 130.082031 -111.199219 130.101562 -105.644531 129.046875 -100.003906 L 128.90625 -99.261719 L 118.71875 -55.246094 L -5.199219 -23.855469 L 15.714844 -114.664062 L 50.664062 -106.613281 L 15.414062 -113.222656 C 16.46875 -118.84375 18.53125 -124.070312 21.601562 -128.894531 C 24.355469 -133.222656 27.800781 -137.027344 31.9375 -140.308594 C 35.847656 -143.410156 40.066406 -145.8125 44.597656 -147.523438 C 49.707031 -149.449219 54.984375 -150.414062 60.429688 -150.414062 Z M 87.691406 -150.414062 "/></g></g></g><g fill="#ffffff" fill-opacity="1"><g transform="translate(38.727821, 260.38345)"><g><path d="M 59 -144.859375 L 34.390625 -38.25 C 33.984375 -36.082031 34.390625 -34.179688 35.609375 -32.546875 C 36.828125 -30.921875 38.519531 -30.109375 40.6875 -30.109375 L 90.75 -30.109375 L 84.03125 0 L 33.78125 0 C 23.195312 0 14.988281 -3.726562 9.15625 -11.1875 C 3.320312 -18.644531 1.625 -27.664062 4.0625 -38.25 L 28.6875 -144.859375 Z M 59 -144.859375 "/></g></g></g><g fill="#ffffff" fill-opacity="1"><g transform="translate(158.870549, 260.38345)"><g><path d="M 67.34375 -144.859375 L 94.609375 -144.859375 C 105.191406 -144.859375 113.394531 -141.128906 119.21875 -133.671875 C 125.050781 -126.210938 126.75 -117.191406 124.3125 -106.609375 L 99.6875 0 L 69.171875 0 L 81.59375 -53.71875 L 35.609375 -41.90625 L 26.046875 0 L -4.46875 0 L 20.140625 -106.609375 C 22.578125 -117.191406 28.375 -126.210938 37.53125 -133.671875 C 46.6875 -141.128906 56.625 -144.859375 67.34375 -144.859375 Z M 87.6875 -114.546875 L 60.421875 -114.546875 C 58.253906 -114.546875 56.1875 -113.765625 54.21875 -112.203125 C 52.25 -110.648438 51.0625 -108.785156 50.65625 -106.609375 L 42.921875 -73.046875 L 88.703125 -84.640625 L 93.796875 -106.609375 C 94.203125 -108.785156 93.828125 -110.648438 92.671875 -112.203125 C 91.523438 -113.765625 89.863281 -114.546875 87.6875 -114.546875 Z M 87.6875 -114.546875 "/></g></g></g><g fill="#ffffff" fill-opacity="1"><g transform="translate(297.527874, 260.38345)"><g><path d="M 28.28125 -144.859375 L 96.234375 -144.859375 C 106.679688 -144.859375 114.820312 -141.128906 120.65625 -133.671875 C 126.488281 -126.210938 128.179688 -117.191406 125.734375 -106.609375 L 122.484375 -92.78125 C 120.859375 -85.457031 117.363281 -78.707031 112 -72.53125 C 106.644531 -66.363281 100.238281 -61.71875 92.78125 -58.59375 L 95.21875 0 L 63.890625 0 L 62.046875 -50.453125 L 35 -43.75 L 25.03125 0 L -5.09375 0 Z M 51.46875 -114.546875 L 42.3125 -75.078125 L 86.46875 -85.859375 C 89.59375 -87.617188 91.492188 -89.925781 92.171875 -92.78125 L 95.421875 -106.609375 C 95.828125 -108.785156 95.453125 -110.648438 94.296875 -112.203125 C 93.148438 -113.765625 91.488281 -114.546875 89.3125 -114.546875 Z M 51.46875 -114.546875 "/></g></g></g><g fill="#ffffff" fill-opacity="1"><g transform="translate(435.167868, 260.38345)"><g><path d="M 67.34375 -144.859375 L 94.609375 -144.859375 C 105.191406 -144.859375 113.394531 -141.128906 119.21875 -133.671875 C 125.050781 -126.210938 126.75 -117.191406 124.3125 -106.609375 L 99.6875 0 L 69.171875 0 L 81.59375 -53.71875 L 35.609375 -41.90625 L 26.046875 0 L -4.46875 0 L 20.140625 -106.609375 C 22.578125 -117.191406 28.375 -126.210938 37.53125 -133.671875 C 46.6875 -141.128906 56.625 -144.859375 67.34375 -144.859375 Z M 87.6875 -114.546875 L 60.421875 -114.546875 C 58.253906 -114.546875 56.1875 -113.765625 54.21875 -112.203125 C 52.25 -110.648438 51.0625 -108.785156 50.65625 -106.609375 L 42.921875 -73.046875 L 88.703125 -84.640625 L 93.796875 -106.609375 C 94.203125 -108.785156 93.828125 -110.648438 92.671875 -112.203125 C 91.523438 -113.765625 89.863281 -114.546875 87.6875 -114.546875 Z M 87.6875 -114.546875 "/></g></g></g><g fill="#ffffff" fill-opacity="1"><g transform="translate(573.825194, 260.38345)"><g><path d="M 28.890625 -144.859375 L 95.21875 -144.859375 C 105.53125 -144.859375 113.597656 -141.09375 119.421875 -133.5625 C 125.253906 -126.039062 126.953125 -117.054688 124.515625 -106.609375 L 99.890625 0 L 69.578125 0 L 94.203125 -106.609375 C 94.609375 -108.785156 94.269531 -110.6875 93.1875 -112.3125 C 92.101562 -113.9375 90.472656 -114.75 88.296875 -114.75 L 52.28125 -114.75 L 25.84375 0 L -4.46875 0 Z M 28.890625 -144.859375 "/></g></g></g><g fill="#ffffff" fill-opacity="1"><g transform="translate(713.092876, 260.38345)"><g><path d="M 67.34375 -144.859375 L 94.609375 -144.859375 C 105.191406 -144.859375 113.394531 -141.128906 119.21875 -133.671875 C 125.050781 -126.210938 126.75 -117.191406 124.3125 -106.609375 L 99.6875 0 L 69.171875 0 L 81.59375 -53.71875 L 35.609375 -41.90625 L 26.046875 0 L -4.46875 0 L 20.140625 -106.609375 C 22.578125 -117.191406 28.375 -126.210938 37.53125 -133.671875 C 46.6875 -141.128906 56.625 -144.859375 67.34375 -144.859375 Z M 87.6875 -114.546875 L 60.421875 -114.546875 C 58.253906 -114.546875 56.1875 -113.765625 54.21875 -112.203125 C 52.25 -110.648438 51.0625 -108.785156 50.65625 -106.609375 L 42.921875 -73.046875 L 88.703125 -84.640625 L 93.796875 -106.609375 C 94.203125 -108.785156 93.828125 -110.648438 92.671875 -112.203125 C 91.523438 -113.765625 89.863281 -114.546875 87.6875 -114.546875 Z M 87.6875 -114.546875 "/></g></g></g></g></g><g transform="matrix(1, 0, 0, 1, 918, 533)"><g clip-path="url(#5ad04a61f8)"><g clip-path="url(#f0b425c747)"><path fill="#ffffff" d="M 329.917969 183.519531 C 330.734375 176.796875 331.175781 169.957031 331.175781 163 C 331.175781 156.042969 330.734375 149.203125 329.917969 142.476562 L 305.214844 135.199219 C 303.050781 124.121094 299.574219 113.539062 294.984375 103.570312 L 310.652344 83.226562 C 303.988281 71.152344 295.859375 59.984375 286.476562 50.019531 L 262.273438 58.613281 L 262.246094 58.613281 C 254.117188 51.097656 245.113281 44.523438 235.410156 39.085938 L 236.113281 13.390625 C 223.832031 7.601562 210.738281 3.304688 197.058594 0.703125 L 182.53125 21.898438 C 177.09375 21.253906 171.539062 20.933594 165.925781 20.933594 C 160.285156 20.933594 154.757812 21.253906 149.292969 21.898438 L 134.765625 0.703125 C 121.082031 3.304688 107.988281 7.601562 95.710938 13.390625 L 96.414062 39.085938 C 86.707031 44.523438 77.703125 51.097656 69.578125 58.609375 L 69.546875 58.609375 L 45.371094 50.019531 C 35.988281 59.984375 27.863281 71.152344 21.167969 83.226562 L 36.835938 103.570312 C 32.246094 113.539062 28.769531 124.121094 26.605469 135.199219 L 1.933594 142.476562 C 1.117188 149.203125 0.675781 156.042969 0.675781 163 C 0.675781 169.957031 1.117188 176.796875 1.933594 183.519531 L 26.605469 190.796875 C 28.769531 201.878906 32.246094 212.460938 36.835938 222.429688 L 21.167969 242.773438 C 27.863281 254.847656 35.988281 266.011719 45.371094 275.980469 L 69.578125 267.386719 C 77.703125 274.898438 86.707031 281.445312 96.410156 286.882812 L 95.710938 312.609375 C 107.988281 318.394531 121.082031 322.691406 134.761719 325.292969 L 149.320312 304.070312 C 154.757812 304.714844 160.3125 305.035156 165.925781 305.035156 C 171.539062 305.035156 177.089844 304.714844 182.527344 304.070312 L 197.058594 325.296875 C 210.738281 322.695312 223.832031 318.398438 236.113281 312.609375 L 235.410156 286.914062 C 245.113281 281.449219 254.117188 274.898438 262.246094 267.386719 L 286.476562 275.980469 C 295.859375 266.011719 303.988281 254.847656 310.652344 242.773438 L 294.984375 222.429688 C 299.574219 212.460938 303.050781 201.878906 305.214844 190.800781 Z M 165.953125 260.839844 C 111.902344 260.839844 68.085938 217.019531 68.085938 162.96875 C 68.085938 108.976562 111.90625 65.160156 165.953125 65.160156 C 219.945312 65.160156 263.765625 108.980469 263.765625 162.96875 C 263.765625 217.019531 219.945312 260.839844 165.953125 260.839844 Z M 165.953125 260.839844 " fill-opacity="1" fill-rule="nonzero"/></g><g clip-path="url(#356fbabb6e)"><g clip-path="url(#0a6a792506)"><g transform="matrix(1, 0, 0, 1, 68, 65)"><g clip-path="url(#a36ce219a8)"><g clip-path="url(#758ac37d64)"><g clip-path="url(#466fbb6a18)"><path fill="#ffd425" d="M 0.0546875 0.109375 L 195.855469 0.109375 L 195.855469 195.910156 L 0.0546875 195.910156 Z M 0.0546875 0.109375 " fill-opacity="1" fill-rule="nonzero"/></g></g></g></g></g></g><g clip-path="url(#0890e12c4b)"><g clip-path="url(#cce37f5964)"><path stroke-linecap="butt" transform="matrix(3, 0, 0, 3, 68.055534, 65.110574)" fill="none" stroke-linejoin="miter" d="M 32.632533 -0.000399694 C 14.610396 -0.000399694 -0.000282173 14.610279 -0.000282173 32.632416 C -0.000282173 50.655855 14.610396 65.265231 32.632533 65.265231 C 50.655972 65.265231 65.265348 50.655855 65.265348 32.632416 C 65.265348 14.610279 50.655972 -0.000399694 32.632533 -0.000399694 Z M 32.632533 -0.000399694 " stroke="#000000" stroke-width="4" stroke-opacity="1" stroke-miterlimit="4"/></g></g></g></g><g transform="matrix(1, 0, 0, 1, 258, 567)"><g clip-path="url(#809bfc0fe3)"><g fill="#000000" fill-opacity="1"><g transform="translate(25.727821, 260.38345)"><g><path d="M 67.347656 -167.375 L 99.289062 -167.375 C 107.835938 -167.375 115.597656 -165.640625 122.570312 -162.167969 C 129.863281 -158.539062 135.917969 -153.222656 140.730469 -146.222656 C 145.246094 -139.65625 148.136719 -132.472656 149.40625 -124.679688 C 150.601562 -117.34375 150.304688 -109.683594 148.519531 -101.699219 L 142.992188 -78 L 66.445312 -78 L 74.316406 -111.730469 C 73.859375 -109.90625 73.835938 -107.867188 74.242188 -105.613281 C 74.738281 -102.902344 75.820312 -100.476562 77.492188 -98.335938 C 79.125 -96.253906 81.167969 -94.644531 83.625 -93.515625 C 85.765625 -92.53125 87.933594 -92.039062 90.132812 -92.039062 L 60.429688 -92.039062 C 63.351562 -92.039062 65.878906 -92.882812 68.007812 -94.574219 C 70.035156 -96.183594 71.398438 -98.378906 72.09375 -101.15625 L 67.089844 -79.722656 C 67.410156 -81.003906 67.503906 -82.601562 67.367188 -84.515625 C 67.171875 -87.253906 66.445312 -89.878906 65.1875 -92.394531 C 63.027344 -96.714844 59.777344 -99.960938 55.4375 -102.128906 L 58.707031 -100.496094 L 61.289062 -97.914062 C 57.820312 -101.382812 53.726562 -103.453125 49.011719 -104.125 C 48.195312 -104.242188 47.457031 -104.300781 46.796875 -104.300781 C 45.175781 -104.300781 43.414062 -103.984375 41.507812 -103.351562 L 42.585938 -103.710938 L 71.773438 -110.265625 C 76.769531 -111.308594 80.855469 -111.832031 84.03125 -111.832031 C 92.460938 -111.832031 100.199219 -110.214844 107.246094 -106.984375 C 114.554688 -103.636719 120.8125 -98.703125 126.023438 -92.191406 C 131.300781 -85.59375 134.738281 -78.25 136.328125 -70.171875 C 137.835938 -62.523438 137.609375 -54.515625 135.65625 -46.148438 L 132.601562 -33.113281 C 129.015625 -17.582031 120.621094 -4.425781 107.417969 6.351562 C 94.054688 17.257812 79.40625 22.714844 63.480469 22.714844 L 33.773438 22.714844 C 25.179688 22.714844 17.34375 21.113281 10.273438 17.914062 C 2.753906 14.507812 -3.589844 9.460938 -8.757812 2.777344 C -13.871094 -3.839844 -17.171875 -11.214844 -18.660156 -19.351562 C -20.042969 -26.921875 -19.78125 -34.890625 -17.878906 -43.25 L -17.632812 -44.324219 L -11.746094 -61.980469 L 66.023438 -61.980469 L 55.738281 -31.132812 L 34.386719 -38.25 L 56.507812 -34.101562 C 56.855469 -35.953125 56.824219 -37.855469 56.414062 -39.8125 C 55.960938 -41.949219 55.117188 -43.878906 53.875 -45.605469 C 52.324219 -47.757812 50.320312 -49.449219 47.859375 -50.679688 C 45.539062 -51.839844 43.148438 -52.417969 40.691406 -52.417969 L 70.398438 -52.417969 C 68.570312 -52.417969 66.832031 -52.085938 65.183594 -51.421875 C 64.050781 -50.964844 63.085938 -50.40625 62.296875 -49.746094 C 61.496094 -49.078125 60.769531 -48.226562 60.117188 -47.195312 C 59.191406 -45.734375 58.570312 -44.136719 58.242188 -42.398438 L 58.335938 -42.894531 L 61.503906 -56.410156 C 61.164062 -54.90625 61.082031 -53.347656 61.257812 -51.734375 C 61.53125 -49.171875 62.371094 -46.773438 63.773438 -44.53125 C 65.105469 -42.398438 66.78125 -40.675781 68.804688 -39.355469 C 69.96875 -38.597656 71.117188 -38.058594 72.238281 -37.742188 L 78.332031 -59.410156 L 83.4375 -37.488281 L 53.734375 -30.570312 L 48.628906 -52.492188 L 54.355469 -30.726562 C 49.902344 -29.550781 45.074219 -28.964844 39.878906 -28.964844 C 33.367188 -28.964844 27.300781 -30.015625 21.675781 -32.121094 C 15.640625 -34.375 10.308594 -37.75 5.679688 -42.246094 L 5.480469 -42.4375 L 5.289062 -42.636719 C -0.976562 -49.027344 -5.140625 -56.417969 -7.207031 -64.8125 C -9.144531 -72.675781 -9.105469 -81.019531 -7.09375 -89.84375 L -1.96875 -111.578125 C 1.609375 -127.09375 10 -140.238281 23.203125 -151.011719 C 36.570312 -161.921875 51.285156 -167.375 67.347656 -167.375 Z M 67.347656 -122.355469 C 61.976562 -122.355469 56.75 -120.28125 51.671875 -116.132812 C 46.425781 -111.855469 43.152344 -106.890625 41.847656 -101.242188 L 36.800781 -79.84375 C 36.371094 -77.953125 36.273438 -76.53125 36.507812 -75.574219 C 36.609375 -75.152344 36.921875 -74.679688 37.4375 -74.152344 L 21.363281 -58.394531 L 37.046875 -74.539062 C 37.429688 -74.171875 38.371094 -73.984375 39.878906 -73.984375 C 41.191406 -73.984375 42.199219 -74.078125 42.898438 -74.261719 L 43.210938 -74.34375 L 78.859375 -82.644531 L 84.425781 -81.082031 C 92.183594 -78.898438 98.023438 -74.667969 101.949219 -68.390625 C 104.199219 -64.792969 105.554688 -60.847656 106.015625 -56.558594 C 106.375 -53.214844 106.148438 -49.738281 105.335938 -46.136719 L 102.285156 -33.113281 L 80.367188 -38.25 L 102.492188 -34.101562 C 101.089844 -26.625 97.296875 -20.3125 91.117188 -15.160156 C 84.90625 -9.984375 78 -7.398438 70.398438 -7.398438 L 40.691406 -7.398438 C 36.066406 -7.398438 31.742188 -8.402344 27.726562 -10.410156 C 23.570312 -12.488281 20.109375 -15.453125 17.339844 -19.300781 C 14.875 -22.722656 13.214844 -26.464844 12.359375 -30.535156 C 11.539062 -34.425781 11.507812 -38.378906 12.261719 -42.398438 L 12.542969 -43.910156 L 13.4375 -46.589844 L 34.792969 -39.472656 L 34.792969 -16.960938 L 4.476562 -16.960938 L 4.476562 -39.472656 L 25.832031 -32.355469 L 25.425781 -31.132812 L 4.070312 -38.25 L 26.015625 -33.25 C 25.480469 -30.894531 25.351562 -28.960938 25.628906 -27.445312 C 25.800781 -26.492188 26.214844 -25.59375 26.867188 -24.75 C 27.464844 -23.976562 28.121094 -23.425781 28.839844 -23.101562 C 30.011719 -22.570312 31.65625 -22.304688 33.773438 -22.304688 L 63.480469 -22.304688 C 68.714844 -22.304688 73.871094 -24.378906 78.953125 -28.527344 C 84.199219 -32.808594 87.46875 -37.761719 88.769531 -43.386719 L 91.816406 -56.398438 C 92.300781 -58.472656 92.417969 -60.164062 92.160156 -61.46875 C 91.988281 -62.339844 91.558594 -63.207031 90.867188 -64.066406 C 90.109375 -65.015625 89.316406 -65.679688 88.488281 -66.058594 C 87.394531 -66.558594 85.910156 -66.808594 84.03125 -66.808594 C 84.246094 -66.808594 84.414062 -66.816406 84.527344 -66.824219 C 84.429688 -66.816406 84.277344 -66.796875 84.074219 -66.769531 C 83.355469 -66.671875 82.542969 -66.527344 81.640625 -66.339844 L 53.5625 -60.03125 L 48.628906 -81.996094 L 55.746094 -60.640625 C 53.027344 -59.734375 50.046875 -59.28125 46.796875 -59.28125 C 39.765625 -59.28125 33.984375 -61.546875 29.457031 -66.078125 L 45.371094 -81.996094 L 35.304688 -61.863281 C 30.695312 -64.167969 27.234375 -67.632812 24.921875 -72.257812 C 23.511719 -75.078125 22.691406 -78.09375 22.460938 -81.308594 C 22.257812 -84.167969 22.519531 -87.054688 23.25 -89.964844 L 28.417969 -112.074219 C 30.195312 -119.191406 34.070312 -125.117188 40.03125 -129.847656 C 46.09375 -134.65625 52.894531 -137.058594 60.429688 -137.058594 L 90.132812 -137.058594 C 94.503906 -137.058594 98.605469 -136.179688 102.441406 -134.414062 C 106.59375 -132.503906 110.09375 -129.726562 112.949219 -126.082031 C 115.839844 -122.382812 117.703125 -118.246094 118.539062 -113.667969 C 119.285156 -109.550781 119.160156 -105.496094 118.160156 -101.5 L 116.734375 -95.394531 L 94.8125 -100.511719 L 94.8125 -123.019531 L 125.128906 -123.019531 L 125.128906 -100.511719 L 103.207031 -105.625 L 104.585938 -111.527344 C 105.105469 -113.855469 105.234375 -115.824219 104.972656 -117.441406 C 104.785156 -118.597656 104.335938 -119.691406 103.628906 -120.71875 C 103.21875 -121.316406 102.847656 -121.699219 102.507812 -121.867188 C 101.851562 -122.191406 100.78125 -122.355469 99.289062 -122.355469 Z M 67.347656 -122.355469 "/></g></g></g><g fill="#000000" fill-opacity="1"><g transform="translate(167.030072, 260.38345)"><g><path d="M 154.589844 -139.800781 L 129.972656 -33.1875 C 126.367188 -17.566406 117.941406 -4.402344 104.695312 6.3125 C 91.34375 17.109375 76.792969 22.511719 61.039062 22.511719 L 33.570312 22.511719 C 25.019531 22.511719 17.214844 20.898438 10.160156 17.679688 C 2.699219 14.273438 -3.605469 9.238281 -8.757812 2.574219 C -13.863281 -4.035156 -17.164062 -11.382812 -18.652344 -19.472656 C -20.046875 -27.042969 -19.785156 -34.988281 -17.863281 -43.3125 L 10.785156 -167.375 L 87.304688 -167.375 L 56.316406 -33.1875 L 34.386719 -38.25 L 56.507812 -34.101562 C 56.835938 -35.847656 56.816406 -37.660156 56.449219 -39.539062 C 56.015625 -41.746094 55.15625 -43.753906 53.871094 -45.566406 C 52.238281 -47.871094 50.121094 -49.664062 47.515625 -50.9375 C 45.222656 -52.0625 42.882812 -52.621094 40.488281 -52.621094 L 67.957031 -52.621094 C 66.195312 -52.621094 64.507812 -52.304688 62.894531 -51.667969 C 61.699219 -51.199219 60.671875 -50.609375 59.8125 -49.894531 C 58.921875 -49.160156 58.132812 -48.238281 57.4375 -47.128906 C 56.53125 -45.675781 55.917969 -44.097656 55.597656 -42.398438 L 55.683594 -42.859375 L 84.4375 -167.375 L 160.957031 -167.375 Z M 110.726562 -149.929688 L 132.65625 -144.867188 L 132.65625 -122.355469 L 102.34375 -122.355469 L 102.34375 -144.867188 L 124.273438 -139.800781 L 99.65625 -33.1875 L 77.722656 -38.25 L 99.847656 -34.101562 C 98.441406 -26.597656 94.664062 -20.300781 88.515625 -15.210938 C 82.382812 -10.140625 75.53125 -7.601562 67.957031 -7.601562 L 40.488281 -7.601562 C 35.925781 -7.601562 31.667969 -8.570312 27.714844 -10.507812 C 23.449219 -12.597656 19.921875 -15.609375 17.136719 -19.542969 C 14.699219 -22.980469 13.078125 -26.753906 12.273438 -30.859375 C 11.53125 -34.636719 11.527344 -38.484375 12.261719 -42.398438 L 12.347656 -42.859375 L 37.070312 -149.929688 L 59.003906 -144.867188 L 59.003906 -122.355469 L 28.6875 -122.355469 L 28.6875 -144.867188 L 50.621094 -139.800781 L 26.003906 -33.191406 C 25.480469 -30.933594 25.355469 -29.078125 25.621094 -27.628906 C 25.792969 -26.695312 26.207031 -25.804688 26.867188 -24.953125 C 27.480469 -24.160156 28.140625 -23.601562 28.855469 -23.273438 C 29.972656 -22.765625 31.542969 -22.511719 33.570312 -22.511719 L 61.039062 -22.511719 C 66.175781 -22.511719 71.289062 -24.570312 76.386719 -28.691406 C 81.585938 -32.898438 84.828125 -37.773438 86.105469 -43.316406 Z M 110.726562 -149.929688 "/></g></g></g><g fill="#000000" fill-opacity="1"><g transform="translate(305.687398, 260.38345)"><g><path d="M 28.890625 -167.375 L 97.050781 -167.375 C 105.550781 -167.375 113.320312 -165.761719 120.367188 -162.53125 C 127.757812 -159.144531 134.035156 -154.148438 139.199219 -147.539062 C 144.367188 -140.929688 147.714844 -133.574219 149.234375 -125.472656 C 150.664062 -117.875 150.414062 -109.902344 148.488281 -101.554688 L 145.210938 -87.625 C 142.160156 -74.40625 135.332031 -62.84375 124.730469 -52.933594 C 114.636719 -43.5 103.09375 -37.160156 90.101562 -33.910156 L 41.183594 -21.886719 L 35.808594 -43.746094 L 57.757812 -38.742188 L 43.796875 22.511719 L -32.761719 22.511719 L 10.976562 -167.375 Z M 28.890625 -122.355469 L 28.890625 -144.867188 L 50.828125 -139.8125 L 17.460938 5.050781 L -4.476562 0 L -4.476562 -22.511719 L 25.839844 -22.511719 L 25.839844 0 L 3.894531 -5 L 16.949219 -62.289062 L 79.179688 -77.585938 C 84.636719 -78.949219 89.574219 -81.695312 93.992188 -85.828125 C 97.902344 -89.480469 100.367188 -93.519531 101.386719 -97.933594 L 104.621094 -111.675781 C 105.136719 -113.90625 105.257812 -115.734375 104.992188 -117.15625 C 104.820312 -118.074219 104.398438 -118.960938 103.734375 -119.8125 C 103.066406 -120.664062 102.359375 -121.261719 101.609375 -121.605469 C 100.519531 -122.105469 99 -122.355469 97.050781 -122.355469 Z M 74.21875 -109.464844 L 65.0625 -69.992188 L 43.132812 -75.078125 L 37.792969 -96.945312 L 81.945312 -107.726562 L 87.285156 -85.863281 L 75.582031 -105.089844 C 74.972656 -104.71875 74.335938 -104.132812 73.671875 -103.324219 C 72.46875 -101.863281 71.628906 -100.167969 71.144531 -98.238281 L 74.328125 -111.769531 L 96.238281 -106.613281 L 74.113281 -110.761719 C 73.78125 -108.992188 73.808594 -107.144531 74.191406 -105.226562 C 74.660156 -102.875 75.601562 -100.742188 77.015625 -98.832031 C 78.695312 -96.558594 80.839844 -94.8125 83.445312 -93.589844 C 85.640625 -92.554688 87.871094 -92.039062 90.132812 -92.039062 L 52.289062 -92.039062 L 52.289062 -114.550781 Z M 34.402344 -137.058594 L 90.132812 -137.058594 C 94.566406 -137.058594 98.710938 -136.152344 102.574219 -134.339844 C 106.839844 -132.339844 110.386719 -129.421875 113.222656 -125.589844 C 115.789062 -122.117188 117.492188 -118.273438 118.335938 -114.054688 C 119.09375 -110.273438 119.101562 -106.410156 118.363281 -102.464844 L 118.265625 -101.960938 L 114.820312 -87.320312 C 113.660156 -82.675781 111.527344 -78.472656 108.425781 -74.707031 C 105.863281 -71.59375 102.71875 -68.902344 98.988281 -66.632812 L 96.011719 -64.820312 L 12.941406 -44.53125 L 30.363281 -119.636719 Z M 34.402344 -137.058594 "/></g></g></g><g fill="#000000" fill-opacity="1"><g transform="translate(443.327391, 260.38345)"><g><path d="M 110.277344 -92.445312 L 60.226562 -92.445312 C 63.285156 -92.445312 65.878906 -93.292969 68.007812 -94.980469 C 70.128906 -96.664062 71.515625 -98.890625 72.167969 -101.664062 L 65.078125 -70.667969 L 43.132812 -75.6875 L 37.652344 -97.519531 L 120.265625 -118.261719 L 101.863281 -37.824219 L 41.40625 -22.90625 L 36.011719 -44.761719 L 57.808594 -39.136719 L 56.179688 -32.828125 L 34.386719 -38.453125 L 56.507812 -34.304688 C 56.863281 -36.183594 56.824219 -38.121094 56.394531 -40.117188 C 55.910156 -42.390625 54.980469 -44.441406 53.613281 -46.261719 C 52.023438 -48.386719 49.996094 -50.039062 47.535156 -51.21875 C 45.304688 -52.289062 43.023438 -52.824219 40.691406 -52.824219 L 119.171875 -52.824219 L 101.980469 22.511719 L 33.773438 22.511719 C 25.179688 22.511719 17.34375 20.910156 10.273438 17.710938 C 2.753906 14.304688 -3.589844 9.257812 -8.757812 2.574219 C -13.871094 -4.042969 -17.171875 -11.417969 -18.660156 -19.554688 C -20.042969 -27.128906 -19.78125 -35.09375 -17.878906 -43.457031 L -1.988281 -111.90625 C 1.613281 -127.515625 10.007812 -140.644531 23.195312 -151.289062 C 36.476562 -162.015625 51.125 -167.375 67.144531 -167.375 L 145.503906 -167.375 L 128.175781 -92.445312 Z M 110.277344 -137.464844 L 110.277344 -114.957031 L 88.347656 -120.027344 L 95.265625 -149.9375 L 117.195312 -144.867188 L 117.195312 -122.355469 L 67.144531 -122.355469 C 61.730469 -122.355469 56.507812 -120.324219 51.476562 -116.261719 C 46.351562 -112.125 43.148438 -107.28125 41.867188 -101.726562 L 26.015625 -33.453125 C 25.480469 -31.097656 25.351562 -29.164062 25.628906 -27.648438 C 25.800781 -26.695312 26.214844 -25.796875 26.867188 -24.953125 C 27.464844 -24.179688 28.121094 -23.628906 28.839844 -23.304688 C 30.011719 -22.773438 31.65625 -22.511719 33.773438 -22.511719 L 84.03125 -22.511719 L 84.03125 0 L 62.085938 -5.007812 L 69.003906 -35.324219 L 90.949219 -30.316406 L 90.949219 -7.804688 L 40.691406 -7.804688 C 36.191406 -7.804688 31.980469 -8.75 28.050781 -10.632812 C 23.894531 -12.628906 20.410156 -15.5 17.597656 -19.25 C 15.011719 -22.703125 13.269531 -26.515625 12.375 -30.6875 C 11.539062 -34.582031 11.503906 -38.554688 12.261719 -42.601562 L 12.398438 -43.347656 L 17.574219 -63.398438 L 77.621094 -78.214844 L 83.011719 -56.359375 L 61.070312 -61.378906 L 68.191406 -92.507812 L 90.132812 -87.488281 L 95.617188 -65.65625 L 13.003906 -44.914062 L 28.34375 -111.972656 C 30.082031 -119.359375 33.976562 -125.453125 40.03125 -130.253906 C 46.09375 -135.0625 52.828125 -137.464844 60.226562 -137.464844 Z M 110.277344 -137.464844 "/></g></g></g><g fill="#000000" fill-opacity="1"><g transform="translate(567.132382, 260.38345)"><g><path d="M 28.28125 -167.375 L 96.238281 -167.375 C 104.734375 -167.375 112.507812 -165.761719 119.554688 -162.53125 C 126.945312 -159.144531 133.222656 -154.148438 138.386719 -147.539062 C 143.554688 -140.929688 146.898438 -133.574219 148.421875 -125.472656 C 149.851562 -117.875 149.601562 -109.902344 147.671875 -101.554688 L 144.394531 -87.625 C 141.984375 -76.769531 136.855469 -66.820312 129.003906 -57.777344 C 121.34375 -48.953125 112.164062 -42.304688 101.464844 -37.832031 L 92.777344 -58.597656 L 115.269531 -59.535156 L 118.6875 22.511719 L 42.179688 22.511719 L 39.5625 -49.640625 L 62.054688 -50.457031 L 67.476562 -28.613281 L 40.417969 -21.898438 L 34.996094 -43.746094 L 56.941406 -38.742188 L 42.984375 22.511719 L -33.371094 22.511719 L 10.367188 -167.375 Z M 28.28125 -122.355469 L 28.28125 -144.867188 L 50.21875 -139.8125 L 16.847656 5.050781 L -5.085938 0 L -5.085938 -22.511719 L 25.027344 -22.511719 L 25.027344 0 L 3.078125 -5 L 16.128906 -62.253906 L 83.546875 -78.984375 L 86.382812 -0.816406 L 63.886719 0 L 63.886719 -22.511719 L 95.21875 -22.511719 L 95.21875 0 L 72.730469 0.9375 L 69.636719 -73.316406 L 84.09375 -79.363281 C 88.316406 -81.128906 91.953125 -83.773438 95.007812 -87.292969 C 97.875 -90.59375 99.730469 -94.140625 100.574219 -97.933594 L 103.808594 -111.675781 C 104.320312 -113.90625 104.445312 -115.734375 104.175781 -117.15625 C 104.003906 -118.074219 103.585938 -118.960938 102.921875 -119.8125 C 102.253906 -120.664062 101.546875 -121.261719 100.796875 -121.605469 C 99.703125 -122.105469 98.183594 -122.355469 96.238281 -122.355469 Z M 73.402344 -109.464844 L 64.246094 -69.992188 L 42.320312 -75.078125 L 36.980469 -96.945312 L 81.132812 -107.726562 L 86.472656 -85.863281 L 75.394531 -105.457031 C 74.527344 -104.96875 73.683594 -104.222656 72.859375 -103.222656 C 71.601562 -101.691406 70.738281 -99.949219 70.269531 -97.992188 L 73.511719 -111.769531 L 95.425781 -106.613281 L 73.300781 -110.761719 C 72.96875 -108.992188 72.992188 -107.144531 73.375 -105.226562 C 73.847656 -102.875 74.789062 -100.742188 76.203125 -98.832031 C 77.882812 -96.558594 80.023438 -94.8125 82.628906 -93.589844 C 84.828125 -92.554688 87.058594 -92.039062 89.320312 -92.039062 L 51.476562 -92.039062 L 51.476562 -114.550781 Z M 33.589844 -137.058594 L 89.320312 -137.058594 C 93.753906 -137.058594 97.898438 -136.152344 101.757812 -134.339844 C 106.023438 -132.339844 109.574219 -129.421875 112.40625 -125.589844 C 114.972656 -122.117188 116.679688 -118.273438 117.523438 -114.054688 C 118.277344 -110.273438 118.289062 -106.410156 117.546875 -102.464844 L 117.453125 -101.960938 L 114.066406 -87.566406 C 112.921875 -82.761719 110.769531 -78.441406 107.613281 -74.605469 C 104.890625 -71.296875 101.535156 -68.519531 97.546875 -66.265625 L 94.835938 -64.734375 L 12.128906 -44.53125 L 29.546875 -119.636719 Z M 33.589844 -137.058594 "/></g></g></g><g fill="#ffffff" fill-opacity="1"><g transform="translate(25.727821, 260.38345)"><g><path d="M 67.34375 -144.859375 L 99.28125 -144.859375 C 109.320312 -144.859375 116.953125 -141.0625 122.171875 -133.46875 C 127.398438 -125.875 128.859375 -116.921875 126.546875 -106.609375 L 125.125 -100.515625 L 94.8125 -100.515625 L 96.234375 -106.609375 C 96.773438 -108.785156 96.4375 -110.648438 95.21875 -112.203125 C 94 -113.765625 92.300781 -114.546875 90.125 -114.546875 L 60.421875 -114.546875 C 58.117188 -114.546875 55.984375 -113.765625 54.015625 -112.203125 C 52.046875 -110.648438 50.789062 -108.785156 50.25 -106.609375 L 45.171875 -84.84375 C 44.765625 -83.21875 44.832031 -82.269531 45.375 -82 C 45.507812 -81.863281 45.984375 -81.796875 46.796875 -81.796875 C 47.609375 -81.796875 48.21875 -81.863281 48.625 -82 L 76.703125 -88.296875 C 79.960938 -88.972656 82.40625 -89.3125 84.03125 -89.3125 C 94.332031 -89.3125 102.46875 -85.582031 108.4375 -78.125 C 114.40625 -70.664062 116.171875 -61.710938 113.734375 -51.265625 L 110.6875 -38.25 C 108.238281 -27.664062 102.398438 -18.609375 93.171875 -11.078125 C 83.953125 -3.554688 74.054688 0.203125 63.484375 0.203125 L 33.78125 0.203125 C 23.0625 0.203125 14.816406 -3.523438 9.046875 -10.984375 C 3.285156 -18.441406 1.625 -27.53125 4.0625 -38.25 L 4.46875 -39.46875 L 34.796875 -39.46875 L 34.390625 -38.25 C 33.984375 -36.082031 34.390625 -34.148438 35.609375 -32.453125 C 36.828125 -30.753906 38.519531 -29.90625 40.6875 -29.90625 L 70.390625 -29.90625 C 72.566406 -29.90625 74.671875 -30.753906 76.703125 -32.453125 C 78.734375 -34.148438 79.953125 -36.082031 80.359375 -38.25 L 83.421875 -51.265625 C 84.367188 -55.472656 82.671875 -58.1875 78.328125 -59.40625 L 48.625 -52.5 C 46.050781 -51.8125 43.132812 -51.46875 39.875 -51.46875 C 32.28125 -51.46875 26.109375 -53.773438 21.359375 -58.390625 C 14.578125 -65.304688 12.410156 -74.125 14.859375 -84.84375 L 19.9375 -106.40625 C 22.375 -116.988281 28.203125 -126.039062 37.421875 -133.5625 C 46.648438 -141.09375 56.625 -144.859375 67.34375 -144.859375 Z M 67.34375 -144.859375 "/></g></g></g><g fill="#ffffff" fill-opacity="1"><g transform="translate(167.030072, 260.38345)"><g><path d="M 132.65625 -144.859375 L 108.03125 -38.25 C 105.59375 -27.664062 99.757812 -18.644531 90.53125 -11.1875 C 81.3125 -3.726562 71.476562 0 61.03125 0 L 33.578125 0 C 22.992188 0 14.816406 -3.726562 9.046875 -11.1875 C 3.285156 -18.644531 1.625 -27.664062 4.0625 -38.25 L 28.6875 -144.859375 L 59 -144.859375 L 34.390625 -38.25 C 33.984375 -36.082031 34.351562 -34.179688 35.5 -32.546875 C 36.65625 -30.921875 38.316406 -30.109375 40.484375 -30.109375 L 67.953125 -30.109375 C 70.117188 -30.109375 72.1875 -30.921875 74.15625 -32.546875 C 76.125 -34.179688 77.3125 -36.082031 77.71875 -38.25 L 102.34375 -144.859375 Z M 132.65625 -144.859375 "/></g></g></g><g fill="#ffffff" fill-opacity="1"><g transform="translate(305.687398, 260.38345)"><g><path d="M 28.890625 -144.859375 L 97.046875 -144.859375 C 107.492188 -144.859375 115.632812 -141.128906 121.46875 -133.671875 C 127.300781 -126.210938 128.992188 -117.191406 126.546875 -106.609375 L 123.296875 -92.78125 C 121.265625 -83.957031 116.617188 -76.15625 109.359375 -69.375 C 102.097656 -62.59375 93.859375 -58.050781 84.640625 -55.75 L 35.8125 -43.75 L 25.84375 0 L -4.46875 0 Z M 52.28125 -114.546875 L 43.140625 -75.078125 L 87.28125 -85.859375 C 90.40625 -87.753906 92.304688 -90.0625 92.984375 -92.78125 L 96.234375 -106.609375 C 96.640625 -108.785156 96.265625 -110.648438 95.109375 -112.203125 C 93.960938 -113.765625 92.300781 -114.546875 90.125 -114.546875 Z M 52.28125 -114.546875 "/></g></g></g><g fill="#ffffff" fill-opacity="1"><g transform="translate(443.327391, 260.38345)"><g><path d="M 110.28125 -114.953125 L 60.21875 -114.953125 C 58.050781 -114.953125 55.984375 -114.171875 54.015625 -112.609375 C 52.046875 -111.054688 50.789062 -109.125 50.25 -106.8125 L 43.140625 -75.6875 L 90.125 -87.484375 L 83.015625 -56.359375 L 36.015625 -44.765625 L 34.390625 -38.453125 C 33.984375 -36.285156 34.390625 -34.382812 35.609375 -32.75 C 36.828125 -31.125 38.519531 -30.3125 40.6875 -30.3125 L 90.953125 -30.3125 L 84.03125 0 L 33.78125 0 C 23.0625 0 14.816406 -3.726562 9.046875 -11.1875 C 3.285156 -18.644531 1.625 -27.734375 4.0625 -38.453125 L 19.9375 -106.8125 C 22.375 -117.394531 28.171875 -126.378906 37.328125 -133.765625 C 46.484375 -141.160156 56.421875 -144.859375 67.140625 -144.859375 L 117.1875 -144.859375 Z M 110.28125 -114.953125 "/></g></g></g><g fill="#ffffff" fill-opacity="1"><g transform="translate(567.132382, 260.38345)"><g><path d="M 28.28125 -144.859375 L 96.234375 -144.859375 C 106.679688 -144.859375 114.820312 -141.128906 120.65625 -133.671875 C 126.488281 -126.210938 128.179688 -117.191406 125.734375 -106.609375 L 122.484375 -92.78125 C 120.859375 -85.457031 117.363281 -78.707031 112 -72.53125 C 106.644531 -66.363281 100.238281 -61.71875 92.78125 -58.59375 L 95.21875 0 L 63.890625 0 L 62.046875 -50.453125 L 35 -43.75 L 25.03125 0 L -5.09375 0 Z M 51.46875 -114.546875 L 42.3125 -75.078125 L 86.46875 -85.859375 C 89.59375 -87.617188 91.492188 -89.925781 92.171875 -92.78125 L 95.421875 -106.609375 C 95.828125 -108.785156 95.453125 -110.648438 94.296875 -112.203125 C 93.148438 -113.765625 91.488281 -114.546875 89.3125 -114.546875 Z M 51.46875 -114.546875 "/></g></g></g></g></g><g clip-path="url(#f0184c7a62)"><path fill="#ffd425" d="M 274.117188 898.289062 L 253.894531 933.316406 L 582.21875 933.316406 L 602.441406 898.289062 Z M 274.117188 898.289062 " fill-opacity="1" fill-rule="nonzero"/></g><g clip-path="url(#5bf07ba823)"><path fill="#ffd425" d="M 605.941406 898.289062 L 585.71875 933.316406 L 603.234375 933.316406 L 623.457031 898.289062 Z M 605.941406 898.289062 " fill-opacity="1" fill-rule="nonzero"/></g><g clip-path="url(#cd105f6608)"><path fill="#ffd425" d="M 628.125 898.289062 L 607.902344 933.316406 L 621.914062 933.316406 L 642.136719 898.289062 Z M 628.125 898.289062 " fill-opacity="1" fill-rule="nonzero"/></g><g clip-path="url(#b9ed4e0af3)"><path fill="#ffd425" d="M 647.976562 898.289062 L 627.753906 933.316406 L 638.960938 933.316406 L 659.183594 898.289062 Z M 647.976562 898.289062 " fill-opacity="1" fill-rule="nonzero"/></g><g clip-path="url(#f35af1a88f)"><path fill="#ffd425" d="M 666.191406 898.289062 L 645.964844 933.316406 L 651.570312 933.316406 L 671.792969 898.289062 Z M 666.191406 898.289062 " fill-opacity="1" fill-rule="nonzero"/></g><g clip-path="url(#8e37a88a57)"><path fill="#ffd425" d="M 679.96875 898.289062 L 659.746094 933.316406 L 662.546875 933.316406 L 682.769531 898.289062 Z M 679.96875 898.289062 " fill-opacity="1" fill-rule="nonzero"/></g><g transform="matrix(1, 0, 0, 1, 727, 863)"><g clip-path="url(#68e72a546d)"><g fill="#ffffff" fill-opacity="1"><g transform="translate(4.71793, 75.175035)"><g><path d="M 8.21875 -41.203125 L 27.609375 -41.203125 C 30.578125 -41.203125 32.890625 -40.140625 34.546875 -38.015625 C 36.203125 -35.890625 36.6875 -33.328125 36 -30.328125 L 35.078125 -26.390625 C 34.492188 -23.878906 33.171875 -21.660156 31.109375 -19.734375 C 29.046875 -17.804688 26.703125 -16.515625 24.078125 -15.859375 L 10.1875 -12.4375 L 7.359375 0 L -1.265625 0 Z M 14.875 -32.578125 L 12.265625 -21.359375 L 24.828125 -24.421875 C 25.710938 -24.960938 26.253906 -25.617188 26.453125 -26.390625 L 27.375 -30.328125 C 27.488281 -30.941406 27.378906 -31.46875 27.046875 -31.90625 C 26.722656 -32.351562 26.253906 -32.578125 25.640625 -32.578125 Z M 14.875 -32.578125 "/></g></g></g><g fill="#ffffff" fill-opacity="1"><g transform="translate(43.845089, 75.175035)"><g><path d="M 18.40625 -41.203125 L 26.21875 -41.203125 C 29.1875 -41.203125 31.5 -40.128906 33.15625 -37.984375 C 34.820312 -35.847656 35.304688 -33.296875 34.609375 -30.328125 L 30.09375 -10.875 C 29.394531 -7.863281 27.734375 -5.296875 25.109375 -3.171875 C 22.492188 -1.054688 19.703125 0 16.734375 0 L 8.921875 0 C 5.941406 0 3.625 -1.054688 1.96875 -3.171875 C 0.3125 -5.296875 -0.164062 -7.863281 0.53125 -10.875 L 5.03125 -30.328125 C 5.726562 -33.296875 7.390625 -35.847656 10.015625 -37.984375 C 12.640625 -40.128906 15.4375 -41.203125 18.40625 -41.203125 Z M 24.25 -32.578125 L 16.4375 -32.578125 C 15.820312 -32.578125 15.234375 -32.351562 14.671875 -31.90625 C 14.109375 -31.46875 13.769531 -30.941406 13.65625 -30.328125 L 9.140625 -10.875 C 9.023438 -10.257812 9.128906 -9.71875 9.453125 -9.25 C 9.785156 -8.789062 10.265625 -8.5625 10.890625 -8.5625 L 18.6875 -8.5625 C 19.3125 -8.5625 19.898438 -8.789062 20.453125 -9.25 C 21.015625 -9.71875 21.351562 -10.257812 21.46875 -10.875 L 25.984375 -30.328125 C 26.097656 -30.941406 25.988281 -31.46875 25.65625 -31.90625 C 25.332031 -32.351562 24.863281 -32.578125 24.25 -32.578125 Z M 24.25 -32.578125 "/></g></g></g><g fill="#ffffff" fill-opacity="1"><g transform="translate(81.931289, 75.175035)"><g><path d="M 8.046875 -41.203125 L 27.375 -41.203125 C 30.34375 -41.203125 32.65625 -40.140625 34.3125 -38.015625 C 35.976562 -35.890625 36.460938 -33.328125 35.765625 -30.328125 L 34.84375 -26.390625 C 34.375 -24.304688 33.378906 -22.382812 31.859375 -20.625 C 30.335938 -18.875 28.515625 -17.554688 26.390625 -16.671875 L 27.078125 0 L 18.171875 0 L 17.65625 -14.34375 L 9.953125 -12.4375 L 7.125 0 L -1.4375 0 Z M 14.640625 -32.578125 L 12.046875 -21.359375 L 24.59375 -24.421875 C 25.476562 -24.921875 26.019531 -25.578125 26.21875 -26.390625 L 27.140625 -30.328125 C 27.253906 -30.941406 27.144531 -31.46875 26.8125 -31.90625 C 26.488281 -32.351562 26.019531 -32.578125 25.40625 -32.578125 Z M 14.640625 -32.578125 "/></g></g></g><g fill="#ffffff" fill-opacity="1"><g transform="translate(121.058448, 75.175035)"><g><path d="M 34.375 -32.640625 L 24.65625 -32.640625 L 17.125 0 L 8.5 0 L 16.03125 -32.640625 L 6.1875 -32.640625 L 8.15625 -41.203125 L 36.34375 -41.203125 Z M 34.375 -32.640625 "/></g></g></g><g fill="#ffffff" fill-opacity="1"><g transform="translate(158.450638, 75.175035)"><g><path d="M 19.15625 -41.203125 L 26.90625 -41.203125 C 29.914062 -41.203125 32.25 -40.140625 33.90625 -38.015625 C 35.570312 -35.890625 36.054688 -33.328125 35.359375 -30.328125 L 28.359375 0 L 19.671875 0 L 23.203125 -15.28125 L 10.125 -11.921875 L 7.40625 0 L -1.265625 0 L 5.734375 -30.328125 C 6.429688 -33.328125 8.082031 -35.890625 10.6875 -38.015625 C 13.289062 -40.140625 16.113281 -41.203125 19.15625 -41.203125 Z M 24.9375 -32.578125 L 17.1875 -32.578125 C 16.570312 -32.578125 15.984375 -32.351562 15.421875 -31.90625 C 14.867188 -31.46875 14.53125 -30.941406 14.40625 -30.328125 L 12.21875 -20.765625 L 25.234375 -24.078125 L 26.6875 -30.328125 C 26.800781 -30.941406 26.691406 -31.46875 26.359375 -31.90625 C 26.035156 -32.351562 25.5625 -32.578125 24.9375 -32.578125 Z M 24.9375 -32.578125 "/></g></g></g><g fill="#ffffff" fill-opacity="1"><g transform="translate(197.866997, 75.175035)"><g><path d="M 16.78125 -41.203125 L 9.78125 -10.875 C 9.664062 -10.257812 9.78125 -9.71875 10.125 -9.25 C 10.46875 -8.789062 10.953125 -8.5625 11.578125 -8.5625 L 25.8125 -8.5625 L 23.890625 0 L 9.609375 0 C 6.597656 0 4.257812 -1.054688 2.59375 -3.171875 C 0.9375 -5.296875 0.457031 -7.863281 1.15625 -10.875 L 8.15625 -41.203125 Z M 16.78125 -41.203125 "/></g></g></g></g></g></svg>